<svg xmlns="http://www.w3.org/2000/svg" viewBox="0 0 564 557.23"><defs><style>.cls-1{fill:#ea5c48;}</style></defs><g id="Layer_2" data-name="Layer 2"><g id="Layer_1-2" data-name="Layer 1"><path class="cls-1" d="M0,346.87c.48-1.75,1.06-3.48,1.41-5.25,4.44-22.39,23.19-38.69,45.43-39.45,22.77-.79,42.53,13.86,48.62,36.06,8.77,32-18.88,63.48-51.86,59.82-18.39-2-38-16.41-42.27-39.42C1,357,.45,355.46,0,353.87Z"/><path class="cls-1" d="M0,425.88c2.16-6.28,4.29-12.46,10.08-16.67,8.55-6.21,19.54-6.63,27.86-.64,8.55,6.16,12.27,16.88,9.19,26.45a23.8,23.8,0,0,1-45.41,0C1.18,433.3.57,431.6,0,429.88Z"/><path class="cls-1" d="M564,458.88a95.44,95.44,0,0,1-4.38,9.38,23.29,23.29,0,0,1-27.24,10.15c-10.53-3.38-16.79-12.93-16.18-24.68.53-10.07,8.29-18.83,18.76-21.16a23.5,23.5,0,0,1,25.73,12.61c1.23,2.5,2.21,5.13,3.31,7.7Z"/><path class="cls-1" d="M0,530.89c2.35-4.49,4-9.55,7.2-13.35,6.87-8.24,18.7-10,28.2-5s14.25,15.19,12.23,26.06c-1.9,10.19-11.06,17.78-22.46,18.59-9.74.7-19.52-6-23-15.74-.67-1.86-1.41-3.7-2.12-5.55Z"/><path class="cls-1" d="M564,534.89c-2.91,4.75-5.13,10.16-8.9,14.1-6.85,7.16-19.1,7.86-27.71,2.66a24,24,0,0,1-10.75-25.81,23.1,23.1,0,0,1,21.28-18c11-.61,19.68,4.87,23.85,15.09.68,1.66,1.49,3.27,2.23,4.91Z"/><path class="cls-1" d="M564,371.87c-.67,1.12-1.38,2.22-2,3.36a11.65,11.65,0,0,1-12.54,5.9,11.47,11.47,0,0,1-1.89-21.86,10.84,10.84,0,0,1,13.26,3.64c1.19,1.55,2.13,3.3,3.18,5Z"/><path class="cls-1" d="M0,494.89c.73-1.29,1.44-2.58,2.19-3.85A11.67,11.67,0,0,1,15,485.46a11.89,11.89,0,0,1,8.65,11,11.59,11.59,0,0,1-8.34,11.2,11.35,11.35,0,0,1-12.94-5c-.8-1.24-1.59-2.49-2.38-3.73Z"/><path class="cls-1" d="M564,495.89c-.74,1.29-1.45,2.6-2.23,3.86-2.82,4.57-8.16,6.78-12.84,5.36a11.45,11.45,0,0,1-.19-22.12c4.81-1.47,10,.58,12.88,5.14l2.38,3.76Z"/><path class="cls-1" d="M508.91,210.13c26.69.1,47.85,21.67,47.73,48.65-.11,25.54-22,47.69-47,47.49-28-.23-49.39-21.33-49.33-48.77C460.38,231.33,482.24,210,508.91,210.13Z"/><path class="cls-1" d="M110.6,281.83a47.92,47.92,0,1,1,48.14-48.12C158.79,260.62,137.63,281.77,110.6,281.83Z"/><path class="cls-1" d="M233.6,211c-26,.24-48.06-21-48.28-46.53-.24-27.18,20.37-48.75,46.35-49.5a48.26,48.26,0,0,1,49.89,47.56C282.06,189.14,260.54,210.71,233.6,211Z"/><path class="cls-1" d="M402.94,357.66a47.94,47.94,0,1,1,95.87-.15c.22,26.8-21.05,48.11-48.11,48.21C424.14,405.82,403.1,384.65,402.94,357.66Z"/><path class="cls-1" d="M192.72,11.76c26.84.07,48.14,21.24,48,47.73-.14,27.28-21.26,48.2-48.61,48.14-26.17-.07-47.9-22-47.71-48.23A48.13,48.13,0,0,1,192.72,11.76Z"/><path class="cls-1" d="M369.4,160.71c26.26-.25,48,21.25,48.2,47.73.23,25.83-21.46,47.87-47.39,48.17-27,.32-48.73-20.69-49-47.35C321,182.13,342,161,369.4,160.71Z"/><path class="cls-1" d="M493.76,495.38a48,48,0,0,1-47.45,48c-26.13.44-49.08-22-48.79-47.83.31-27.1,21.41-48.3,48.18-48.41S493.64,468.35,493.76,495.38Z"/><path class="cls-1" d="M404,61.52A47.32,47.32,0,0,1,356.33,109c-27-.08-48.22-21-48.18-47.62,0-26.89,21.08-48.28,47.54-48.31C383.12,13,404.07,34,404,61.52Z"/><path class="cls-1" d="M63,503.88a48.12,48.12,0,0,1,48.87-47.55c26.51.52,47.48,22.54,47,49.41-.44,26.56-22.29,47.28-49.43,46.87C83.52,552.21,62.63,530.31,63,503.88Z"/><path class="cls-1" d="M288.24,148.92c-.06-13.44,10.5-23.87,24.14-23.83,12.75,0,23.26,10.77,23.26,23.74s-10.89,23.65-24,23.7C298.94,172.57,288.29,161.84,288.24,148.92Z"/><path class="cls-1" d="M57.84,190.63a23.4,23.4,0,0,1-23.6-23.8,23.73,23.73,0,0,1,23.94-23.6c12.22,0,23.42,11,23.5,23.18A23.76,23.76,0,0,1,57.84,190.63Z"/><path class="cls-1" d="M298.2,256.71c-13.52,0-23.85-10.12-23.92-23.46-.08-12.95,10.68-24.06,23.12-23.89,13.5.19,24.27,10.55,24.29,23.36A23.57,23.57,0,0,1,298.2,256.71Z"/><path class="cls-1" d="M300.64,92.74a23.69,23.69,0,1,1-23.51-23.51A23.57,23.57,0,0,1,300.64,92.74Z"/><path class="cls-1" d="M487.83,400a23.62,23.62,0,0,1,23.87,23.08,24.19,24.19,0,0,1-23.44,24.3c-12.56.33-23.82-10.5-24-23.09A23.43,23.43,0,0,1,487.83,400Z"/><path class="cls-1" d="M195.64,256.69a23.52,23.52,0,0,1-23.3-24.14c.18-12.61,11.36-23.45,24-23.22a23.91,23.91,0,0,1,23.44,24.16C219.6,246.77,209.07,256.9,195.64,256.69Z"/><path class="cls-1" d="M509.24,332.88a23.71,23.71,0,1,1,47.41.17c-.15,12.89-10.91,23.61-23.58,23.49C519.67,356.42,509.18,346,509.24,332.88Z"/><path class="cls-1" d="M275.89,0c13.21,0,23.77,10.17,23.78,23a23.67,23.67,0,1,1-47.34.74A23.28,23.28,0,0,1,275.89,0Z"/><path class="cls-1" d="M426.8,309.71c-13.23,0-23.65-10.18-23.7-23.16-.06-13.5,10.67-24.44,23.81-24.27,12.62.16,23.73,11.28,23.64,23.64A23.68,23.68,0,0,1,426.8,309.71Z"/><path class="cls-1" d="M127.76,91.33a23.35,23.35,0,0,1-23.5,23.35A23.59,23.59,0,0,1,80.37,90.61c.1-12.26,11-23.18,23.38-23.33A23.88,23.88,0,0,1,127.76,91.33Z"/><path class="cls-1" d="M128.55,290a23.34,23.34,0,0,1,24.09,23.27c.15,12.91-10.37,23.83-23,23.94-13.46.12-24.12-10-24.34-23.1A23.56,23.56,0,0,1,128.55,290Z"/><path class="cls-1" d="M396.92,156.76A23.32,23.32,0,0,1,373.27,133c0-13.15,10.7-23.41,24.19-23.26a23.52,23.52,0,0,1-.54,47Z"/><path class="cls-1" d="M467.88,199.15c-.24,13-11.07,23.67-23.72,23.33-13.12-.36-23.84-11.39-23.59-24.25.27-13.23,11.35-23.47,25-23.13C458.29,175.42,468.12,186,467.88,199.15Z"/><path class="cls-1" d="M519.07,150.41a23.5,23.5,0,0,1-23.88,23.14c-13.46-.15-23.52-11-23.14-24.86a23.3,23.3,0,0,1,23.78-22.59A23.54,23.54,0,0,1,519.07,150.41Z"/><path class="cls-1" d="M130.32,449.75c-13.38,0-24-10.48-23.88-23.56a24,24,0,0,1,24-23.67c13.06-.08,23.36,10.48,23.43,24A23.17,23.17,0,0,1,130.32,449.75Z"/><path class="cls-1" d="M465,81.49a23.88,23.88,0,0,1-23.73,24,23.61,23.61,0,0,1-23.38-23.7C417.94,68.44,428,58.1,441.06,58,454.64,58,465,68.14,465,81.49Z"/><path class="cls-1" d="M53,277.34a23.14,23.14,0,0,1-23.48,23.4A23.33,23.33,0,0,1,6,276.86c0-13,10.77-23.72,23.55-23.56A23.56,23.56,0,0,1,53,277.34Z"/><path class="cls-1" d="M136.93,133.89a23.68,23.68,0,0,1,23.46-23.6c12.68-.18,23.54,10.68,23.51,23.5,0,13.9-10.15,24-23.92,23.91C147,157.61,136.91,147.19,136.93,133.89Z"/><path class="cls-1" d="M45.7,197.44c0,6.23-5.25,11.73-11.21,11.74a11.89,11.89,0,0,1-12-11.58c-.12-5.72,5.72-11.52,11.53-11.44C40.35,186.26,45.69,191.43,45.7,197.44Z"/><path class="cls-1" d="M412.22,452.91a11.63,11.63,0,0,1-11.83-11.51c0-5.77,5.3-11.1,11.14-11.25a11.61,11.61,0,0,1,12,11.34C423.72,447.5,418.41,452.86,412.22,452.91Z"/><path class="cls-1" d="M476.06,110.85a11.51,11.51,0,0,1-11.73-11.6c0-5.87,5.58-11.18,11.68-11.17a11.92,11.92,0,0,1,11.54,11.38A11.56,11.56,0,0,1,476.06,110.85Z"/><path class="cls-1" d="M449.09,409.87a11.31,11.31,0,0,1,11.51,10.72,11.61,11.61,0,1,1-23.21.26C437.51,414.71,442.6,409.92,449.09,409.87Z"/><path class="cls-1" d="M503.93,538a11.39,11.39,0,0,1-11.37,11.41c-6.05,0-11.52-5.54-11.4-11.5.13-6.29,5.25-11.56,11.27-11.58A11.25,11.25,0,0,1,503.93,538Z"/><path class="cls-1" d="M23.35,469.16a11.84,11.84,0,0,1,11.24-11.7c6.17-.17,12,5.57,11.84,11.74a11.93,11.93,0,0,1-11.65,11.33A11.49,11.49,0,0,1,23.35,469.16Z"/><path class="cls-1" d="M60.13,423.9c-6.31,0-11.7-5-11.76-11a11.94,11.94,0,0,1,11.75-11.69c6.08,0,11.51,5.42,11.49,11.42A11.42,11.42,0,0,1,60.13,423.9Z"/><path class="cls-1" d="M129.74,132.22a11.76,11.76,0,0,1-11.28,11.05A11.62,11.62,0,0,1,107,131.37a11.37,11.37,0,1,1,22.71.85Z"/><path class="cls-1" d="M74.72,128.38c0,6.63-5,11.43-11.78,11.34-6.39-.08-11.08-5-11-11.59a10.88,10.88,0,0,1,10.95-11C69.78,117,74.73,121.77,74.72,128.38Z"/><path class="cls-1" d="M118.32,51.7a11.68,11.68,0,0,1,11.31-11.51A12.13,12.13,0,0,1,141.3,51.53c.19,6-5.13,11.56-11.23,11.72A11.48,11.48,0,0,1,118.32,51.7Z"/><path class="cls-1" d="M509.05,499.89c-6.67,0-11.69-4.67-11.77-11a11.5,11.5,0,1,1,23,0A11.28,11.28,0,0,1,509.05,499.89Z"/><path class="cls-1" d="M500.89,193.24a11.34,11.34,0,0,1-22.65-.86,11.18,11.18,0,0,1,11.5-11.2C496.48,181.29,501,186.17,500.89,193.24Z"/><path class="cls-1" d="M541.84,199a11.44,11.44,0,0,1-11.71,11.17c-6,0-11.11-5.59-11-11.85a11.34,11.34,0,1,1,22.67.68Z"/><path class="cls-1" d="M176,200.44a11.57,11.57,0,0,1-11.64,11.74c-5.77-.07-11-5.47-11.11-11.4a11.54,11.54,0,0,1,11.28-11.61A11.31,11.31,0,0,1,176,200.44Z"/><path class="cls-1" d="M246.85,12.69a11.37,11.37,0,0,1-11,11.71A11.11,11.11,0,0,1,224.2,12.92,11.63,11.63,0,0,1,235.4,1.29C241.46,1.17,246.78,6.47,246.85,12.69Z"/><path class="cls-1" d="M281.19,186.06a11.58,11.58,0,0,1,12-11.81c5.77.13,10.77,5.43,10.76,11.42a11.64,11.64,0,0,1-11.21,11.61A11.39,11.39,0,0,1,281.19,186.06Z"/><path class="cls-1" d="M112.18,359.75c-6.63,0-11.24-4.62-11.27-11.32a11,11,0,0,1,10.86-11.26c6.58-.06,11.84,4.71,11.92,10.83A11.28,11.28,0,0,1,112.18,359.75Z"/><path class="cls-1" d="M445.72,241.09a11.65,11.65,0,0,1-11.34,11.57,11.32,11.32,0,0,1-11.64-11.22,11.49,11.49,0,0,1,23-.35Z"/><path class="cls-1" d="M553.89,412.81A11.27,11.27,0,0,1,542,424.25c-5.68-.14-10.91-5.75-10.84-11.62a11.51,11.51,0,0,1,11.52-11.38A11.19,11.19,0,0,1,553.89,412.81Z"/><path class="cls-1" d="M85.17,164.05a11.7,11.7,0,0,1,11.65-11.72c5.66-.07,11,5.73,11,11.84a11.3,11.3,0,0,1-11.37,11.34A11.47,11.47,0,0,1,85.17,164.05Z"/><path class="cls-1" d="M87.07,390c-.1-6.39,4.92-11.73,11-11.7a11.54,11.54,0,1,1-11,11.7Z"/><path class="cls-1" d="M450,156c-.07,6.17-5.41,11.6-11.33,11.5A11.72,11.72,0,0,1,427.29,156,11.53,11.53,0,0,1,439,144.27,11.39,11.39,0,0,1,450,156Z"/><path class="cls-1" d="M83.42,430.9C90,430.81,95,435.61,95,442a11.4,11.4,0,1,1-22.79.37A11,11,0,0,1,83.42,430.9Z"/><path class="cls-1" d="M146.71,168.41a11.36,11.36,0,1,1-22.72-.33,10.94,10.94,0,0,1,11.48-11.14A11.13,11.13,0,0,1,146.71,168.41Z"/><path class="cls-1" d="M235.73,256.64a11.33,11.33,0,1,1-.06-22.65c6.82,0,11.43,4.8,11.34,11.82C246.94,252,242.1,256.6,235.73,256.64Z"/><path class="cls-1" d="M514,401.82a11.53,11.53,0,0,1-11.62-11.23c-.16-6,5.23-11.39,11.52-11.42a11.67,11.67,0,0,1,11.6,11.33A11.37,11.37,0,0,1,514,401.82Z"/><path class="cls-1" d="M418.51,38.77c6.62-.07,12.06,5.07,12,11.35C430.44,56,425,61.39,418.93,61.53a11.6,11.6,0,0,1-11.58-11.22A11.4,11.4,0,0,1,418.51,38.77Z"/><path class="cls-1" d="M141.77,378c6.77.1,11.23,4.68,11.12,11.39A11.34,11.34,0,1,1,141.77,378Z"/><path class="cls-1" d="M23.62,248a11.27,11.27,0,0,1-11.25-11c0-6.33,5.65-11.94,11.84-11.71s11.53,5.88,11.3,11.77A11.42,11.42,0,0,1,23.62,248Z"/><path class="cls-1" d="M313.84,3A11.15,11.15,0,0,1,325,14.51a10.92,10.92,0,0,1-11,11.1c-6.8,0-11.89-5-11.79-11.53A11.1,11.1,0,0,1,313.84,3Z"/><path class="cls-1" d="M347.09,143.83a11.29,11.29,0,0,1-11.64-11.13c-.06-6,5.52-11.63,11.47-11.58s11.76,5.61,11.66,11.4A11.21,11.21,0,0,1,347.09,143.83Z"/><path class="cls-1" d="M492.58,516.12c2.18-1.17,4.34-3.25,6.53-3.28,3.09,0,5.51,2.62,4.33,5.77-.73,2-3.58,4.42-5.38,4.34-2-.08-3.81-2.84-5.71-4.42C492.42,517.72,492.5,516.92,492.58,516.12Z"/><path class="cls-1" d="M417.31,411.14c-1.34-2.14-3.77-4.33-3.67-6.41.09-1.78,3.06-3.42,4.75-5.13,1.79,1.8,4.82,3.48,5,5.45s-2.54,4.08-4,6.14Z"/><path class="cls-1" d="M253.09,211.15c1.49,2,4,3.95,4.21,6.12.35,3-2.09,5.24-5.43,5.17s-5.51-2.43-5-5.52c.33-2.08,2.6-3.85,4-5.76Z"/><path class="cls-1" d="M467.7,292.67c-1.87,1.29-3.6,3.33-5.63,3.69-3.09.54-5.52-1.38-5.59-4.77-.06-3.22,1.78-5.4,5.15-5.4S466.8,288,467.7,292.67Z"/><path class="cls-1" d="M427.07,112.37c1.48,2,3.92,3.91,4.2,6.08a4.33,4.33,0,0,1-5.27,5c-2-.47-4.86-3-5-4.74-.15-2,2.34-4.16,3.69-6.25Z"/><path class="cls-1" d="M97.83,129.39c-1.23-1.94-3.19-3.78-3.52-5.87-.49-3.19,1.72-5.92,4.93-5.16,2.09.5,4.78,3.25,5,5.26.22,1.75-2.59,3.89-4.07,5.85Z"/><path class="cls-1" d="M176.62,178.93c-2,1.44-3.91,3.78-6.1,4.09a4.33,4.33,0,0,1-5-5.24c.42-2,3-4.72,4.83-4.88s4.12,2.28,6.2,3.59Z"/><path class="cls-1" d="M148.41,346.52c-4.7-.83-6.88-3-6.3-6,.37-2,3.33-5.11,4.74-4.92,2.1.29,5.06,2.86,5.41,4.84C152.57,342.16,149.81,344.46,148.41,346.52Z"/><path class="cls-1" d="M422.28,176.55c-2.15,1.35-4.34,3.78-6.43,3.71-1.79-.07-4.62-2.81-5-4.72a4.33,4.33,0,0,1,5.08-5.17c2.29.42,4.25,2.6,6.36,4Z"/><path class="cls-1" d="M503.42,469.21c.88-4.61,2.94-6.93,6-6.37,2,.36,5.07,3.31,4.89,4.73-.28,2.12-2.79,5.11-4.77,5.49C507.81,473.38,505.49,470.61,503.42,469.21Z"/><path class="cls-1" d="M144.44,458.54c1.95-1.38,3.86-3.81,5.88-3.91,3.15-.16,6.09,2.2,5.11,5.72-.54,1.94-3.4,4.48-5.22,4.49-2,0-4-2.61-5.93-4.09Z"/><path class="cls-1" d="M561.78,429.59c-1.12.82-3,3.15-5.18,3.53a4.27,4.27,0,0,1-5-5.22c.39-2,2.88-4.64,4.81-5C559.2,422.37,561.94,424.05,561.78,429.59Z"/><path class="cls-1" d="M423.69,428.43c-1.18-2-3.06-3.82-3.37-5.91-.5-3.3,1.84-5.29,5.09-5.21s5.7,2.09,5,5.32c-.46,2.17-2.84,3.94-4.36,5.9Z"/><path class="cls-1" d="M126.68,152.23c-3.39,2.52-5.14,4.77-7.24,5.17a4.58,4.58,0,0,1-5.6-5.2c.24-1.86,3.18-4.61,5-4.68C120.9,147.44,123.06,149.91,126.68,152.23Z"/><path class="cls-1" d="M498.44,463.54c-2.14,1.28-4.28,3.59-6.43,3.59-2.86,0-5.63-2.46-4.43-5.73.73-2,3.49-4.52,5.3-4.5s3.86,2.77,5.78,4.32C498.59,462,498.51,462.77,498.44,463.54Z"/><path class="cls-1" d="M96.74,140.35c-1.19,4.55-3.35,6.71-6.38,5.92-2-.51-4.46-3.08-4.77-5a4.29,4.29,0,0,1,5.18-5C93,136.67,94.76,138.91,96.74,140.35Z"/><path class="cls-1" d="M535.54,392.52c-4.71-.89-6.86-3-6.12-6.1.46-2,2.85-4.51,4.77-4.91a4.26,4.26,0,0,1,5.26,4.9C539.11,388.59,536.91,390.49,535.54,392.52Z"/><path class="cls-1" d="M183.67,163c-3.49,2.33-5.73,5-7.39,4.65-2.13-.41-3.81-3.2-5.68-5,1.85-1.8,3.58-4.85,5.58-5S180.19,160.4,183.67,163Z"/><path class="cls-1" d="M270,252.48c-2.06,1.38-4,3.6-6.22,4a4.34,4.34,0,0,1-5-5.24c.38-1.92,3.17-4.57,5-4.68,2-.11,4.14,2.35,6.21,3.69C270,251,270,251.72,270,252.48Z"/><path class="cls-1" d="M465.64,166.83c-2,1.29-4.17,3.71-6.09,3.55s-4.47-2.74-4.91-4.68a4.27,4.27,0,0,1,4.94-5.22c2.16.27,4.06,2.51,6.08,3.88C465.65,165.18,465.64,166,465.64,166.83Z"/><path class="cls-1" d="M272.79,220.35c0,3.48-2.05,5.69-5.18,5-2-.43-4.68-3.12-4.75-4.89s2.57-4.56,4.49-5C270.43,214.65,272.6,216.81,272.79,220.35Z"/><path class="cls-1" d="M524,172.94c-2.52-3.32-4.92-5.08-5.14-7.09-.36-3.24,2-6.19,5.42-5.4,2,.48,4.44,3.41,4.79,5.55C529.34,167.57,526.55,169.65,524,172.94Z"/><path class="cls-1" d="M502.25,354.53c2-1.3,4.27-4,5.82-3.57,2.15.54,3.72,3.36,5.54,5.21-1.87,1.76-3.63,4.73-5.66,4.94-1.77.18-3.87-2.75-5.82-4.3Z"/><path class="cls-1" d="M56.93,483.49c-2.1,1.34-4.29,3.82-6.29,3.68s-4.62-2.87-5-4.82a4.32,4.32,0,0,1,5.11-5.11c2.23.4,4.14,2.58,6.19,4Z"/><path class="cls-1" d="M562.9,309.15c-.18,3.33-2.39,5.51-5.36,4.9-2-.41-5-3.42-4.81-4.86a7.83,7.83,0,0,1,4.95-5.32C560.7,303.2,562.75,305.64,562.9,309.15Z"/><path class="cls-1" d="M550.36,288.86c2-1.5,4-4.22,6-4.15s4.58,2.8,5.1,4.83a4.41,4.41,0,0,1-4.76,5.51c-2.19-.2-4.19-2.48-6.28-3.83C550.4,290.43,550.38,289.65,550.36,288.86Z"/><path class="cls-1" d="M69.6,102.3c1.36,2,3.58,3.92,3.87,6.08.43,3.23-2.14,5.05-5.35,5.09s-5.24-2-4.7-5c.41-2.22,2.43-4.15,3.73-6.2Z"/><path class="cls-1" d="M269.53,64.13c-1.84,1.45-3.5,3.75-5.55,4.16-3.09.62-5.53-1.38-5.64-4.8s1.89-5.71,5.17-5.25c2.11.29,4,2.37,5.93,3.65Z"/><path class="cls-1" d="M435.36,432.81c1.43,2.06,4,4.14,3.95,6.17,0,1.84-2.64,4.71-4.59,5.2a4.31,4.31,0,0,1-5.33-4.87c.27-2.26,2.44-4.3,3.77-6.43Z"/><path class="cls-1" d="M246.53,38.24c4.76.73,6.91,2.84,6.31,5.92-.39,2-3.29,5.19-4.57,5-2.14-.37-5-2.8-5.44-4.81C242.48,42.63,245.18,40.29,246.53,38.24Z"/><path class="cls-1" d="M285,67.44c-1.37-1.87-3.54-3.59-3.92-5.64-.55-3,1.46-6,4.72-5.38,2.15.41,5,3,5.38,5,.31,1.72-2.48,4-3.9,6Z"/><path class="cls-1" d="M138.72,69.26c1.35,2.07,3.82,4.19,3.73,6.2-.08,1.76-2.8,4.43-4.75,4.85a4.18,4.18,0,0,1-5.22-4.85c.36-2.23,2.54-4.15,3.9-6.21Z"/><path class="cls-1" d="M147.59,108.52c-1.91,1.35-3.67,3.47-5.75,3.86-3.24.61-5.42-1.53-5.44-4.95s2.19-5.58,5.35-5.08c2.09.33,3.89,2.52,5.82,3.87C147.57,107,147.58,107.76,147.59,108.52Z"/><path class="cls-1" d="M200.55,122.58c-4.5-1.23-6.77-3.31-6-6.36a7.81,7.81,0,0,1,5.11-4.77,4.29,4.29,0,0,1,5,5.2C204.27,118.8,202,120.62,200.55,122.58Z"/><path class="cls-1" d="M498,111.15c1.4,2,4,4,3.88,6s-3.15,5.16-4.54,5c-2.1-.28-5.06-2.77-5.46-4.77-.34-1.72,2.36-4.06,3.72-6.12Z"/><path class="cls-1" d="M324.6,183.2c-2.05,1.38-4.19,4-6.13,3.81s-5-3.32-4.83-4.77c.28-2.06,2.93-4.93,4.94-5.28,1.73-.31,4,2.43,6,3.82C324.61,181.59,324.6,182.39,324.6,183.2Z"/><path class="cls-1" d="M512.55,181.59c-2,1.35-3.95,3.51-6.14,3.85a4.21,4.21,0,0,1-4.94-5.18c.42-1.95,3.07-4.59,4.9-4.74s4.09,2.27,6.15,3.57Z"/><path class="cls-1" d="M61.24,540.46c-1.39-2-3.56-3.79-4-6a4.07,4.07,0,0,1,5-5c2,.41,4.86,2.88,5,4.63.17,2-2.25,4.17-3.55,6.27Z"/><path class="cls-1" d="M84.38,120.42c2.34,3.58,5.06,5.92,4.74,7.72-.35,2-3.54,4.88-5.39,4.8s-4.73-3.3-4.86-5.3C78.74,125.8,81.67,123.76,84.38,120.42Z"/><path class="cls-1" d="M104.24,421.48c-2.1,1.37-4.36,4-6.25,3.76s-4.47-3.17-4.8-5.24c-.21-1.32,3.07-4.44,4.86-4.5,2-.06,4.13,2.39,6.21,3.75Z"/><path class="cls-1" d="M24.59,209.3c1.19,2,3.25,4,3.35,6.14.14,3.11-2.38,5.69-5.52,4.75-2-.59-4.55-3.49-4.54-5.34s2.8-3.86,4.38-5.78Z"/><path class="cls-1" d="M534.29,501c-2,1.51-4,4.14-6,4.19-1.71.05-4.46-2.65-5-4.63a4.23,4.23,0,0,1,4.62-5.49c2.23.23,4.26,2.47,6.37,3.81Z"/><path class="cls-1" d="M413.72,421.44c-2,1.37-4.35,4.09-6.06,3.76-2-.4-4.41-3.23-4.9-5.41-.27-1.14,2.93-4.07,4.95-4.53C410.9,414.53,412.88,416.74,413.72,421.44Z"/><path class="cls-1" d="M526.59,422.29c-2.07,1.38-4.21,3.92-6.19,3.79-1.79-.11-4.91-3.33-4.71-4.82.27-2.07,2.91-5,4.9-5.3,1.75-.29,4,2.47,6,3.89Z"/><path class="cls-1" d="M401.44,395.2c2.05-1.33,4.16-3.8,6.11-3.67s4.47,2.76,4.91,4.71a4.18,4.18,0,0,1-4.91,5.16c-2.18-.34-4.08-2.46-6.11-3.79Z"/><path class="cls-1" d="M239.84,96.5c-1.39-1.88-3.67-3.63-4-5.68-.44-3,1.72-6,4.89-5.38,2.15.4,5,3.06,5.36,5.08.3,1.72-2.56,4-4,6Z"/><path class="cls-1" d="M1.38,466.78c3.46-2.24,5.33-4.31,7.47-4.64,3.11-.48,5.51,1.61,5.39,5-.11,3.11-2.12,5.76-5.34,5.1C6.66,471.75,4.81,469.36,1.38,466.78Z"/><path class="cls-1" d="M55.5,239.22c1.37,2,3.6,3.89,3.89,6,.44,3.14-2,5.69-5.17,4.94a7.93,7.93,0,0,1-4.84-4.92C48.59,242.08,50.84,240.14,55.5,239.22Z"/><path class="cls-1" d="M12.88,306.63c0,3.81-1.8,5.77-5.07,5.79s-5.8-2.05-5.24-5.18c.36-1.95,2.86-4.44,4.85-5C10.48,301.47,12.62,303.6,12.88,306.63Z"/><path class="cls-1" d="M122.65,381.22c-2,1.43-4,3.79-6.13,4.06-3.07.38-5.15-2.06-5.08-5.35s2.38-5.37,5.49-4.79c2.07.38,3.82,2.46,5.71,3.78Z"/><path class="cls-1" d="M300.83,63.25c1.24,2.08,3.31,4.08,3.52,6.27.31,3.18-2.1,5.18-5.41,4.91s-5.2-2.82-4.58-5.8c.42-2,2.71-3.67,4.16-5.48Z"/><path class="cls-1" d="M242.26,72.86c2-1.32,4.16-3.76,6.1-3.62s5.12,3.32,4.86,4.54c-.45,2.13-2.93,4.92-5,5.29-1.72.32-4-2.39-6-3.75Z"/><path class="cls-1" d="M519.68,511.32c-2.06,1.43-4.18,4-6.17,3.94-1.77-.07-4.54-3-4.85-4.92a4.36,4.36,0,0,1,5.25-5c2.09.38,3.88,2.44,5.81,3.75C519.7,509.8,519.69,510.56,519.68,511.32Z"/><path class="cls-1" d="M515.13,377.65c-2.47-3.56-4.72-5.47-5.15-7.73-.6-3.24,2-5.31,5.1-5.34s5.7,2.16,5.21,5.28C519.94,372.11,517.62,374.06,515.13,377.65Z"/><path class="cls-1" d="M306.37,99.77c2.48,3.39,4.68,5.15,5.09,7.26.61,3.22-1.68,5.4-5,5.46s-5.65-2.1-5.09-5.34C301.75,105,303.94,103.23,306.37,99.77Z"/><path class="cls-1" d="M328.78,110.27c1.3,2,3.43,3.85,3.71,6a4.38,4.38,0,0,1-5.27,5.05c-1.91-.39-4.58-3.2-4.63-5,0-2,2.47-4.08,3.86-6.13Z"/><path class="cls-1" d="M496.39,315.45c1.4,2.1,3.78,4.13,3.95,6.34.24,3.12-2.4,5-5.7,4.8s-5.06-2.45-4.36-5.42c.5-2.11,2.5-3.88,3.83-5.8Z"/><path class="cls-1" d="M409.4,307.18c1.45,2,4.05,4,4,5.92s-2.57,4.67-4.51,5.17a4.33,4.33,0,0,1-5.47-4.68c.2-2.19,2.31-4.21,3.56-6.3Z"/><path class="cls-1" d="M288.84,128.93c-2,1.17-4,3.19-6.16,3.32-3.27.21-5.21-2.41-4.89-5.63s2.82-5.31,6-4.4c2,.58,3.56,2.91,5.32,4.45Z"/><path class="cls-1" d="M469.88,133.58c-1.25-2.09-3.63-4.31-3.42-6.24s3-4.4,4.91-4.73a4.3,4.3,0,0,1,5.08,5.1c-.41,2.17-2.73,4-4.19,6Z"/><path class="cls-1" d="M434.36,131.19c.75,1.22,2.9,3.2,3,5.28a4.47,4.47,0,0,1-5.66,4.69c-1.93-.51-4.36-3.28-4.56-5.25C426.84,132.87,429.25,130.86,434.36,131.19Z"/><path class="cls-1" d="M83.18,286.23c4.68.81,7,2.76,6.38,5.95-.42,2-2.89,4.67-4.84,5.07a4.39,4.39,0,0,1-5.17-5.15C79.83,290,81.91,288.18,83.18,286.23Z"/><path class="cls-1" d="M67.13,263.33c2.35,3.54,4.87,5.68,4.81,7.75,0,1.75-3.36,5-4.72,4.75-2.13-.38-5.14-3-5.35-4.94S64.55,266.81,67.13,263.33Z"/><path class="cls-1" d="M464.87,135.81c1.32,2,3.41,3.84,3.77,6,.55,3.26-1.88,5.82-5,5.21-2-.39-4.9-3.15-4.92-4.88,0-2.09,2.56-4.21,4-6.31Z"/><path class="cls-1" d="M159.36,250.1c2.06-1.32,4-3.45,6.21-3.75a4.19,4.19,0,0,1,4.81,5.26c-.48,1.95-3.16,4.55-5,4.65s-4-2.36-6.08-3.71Z"/><path class="cls-1" d="M261.77,234.47c-.31,3.2-1.61,5.36-5.21,5.26-3.41-.1-5.72-2.07-5.05-5.22.42-2,2.85-4.52,4.77-4.92C259.22,229,261.52,231,261.77,234.47Z"/><path class="cls-1" d="M356.05,155.85c-1.22.92-3.34,3.69-4.92,3.41-2.12-.36-3.83-3.1-5.71-4.81,1.65-1.77,3-4.57,5-5.09C353.56,148.55,355.59,150.88,356.05,155.85Z"/><path class="cls-1" d="M420,155.25c1.23,2,3.27,3.89,3.49,6,.35,3.27-2.2,5.3-5.39,5.07s-5.48-2.53-4.67-5.74c.51-2.06,2.81-3.66,4.32-5.47Z"/><path class="cls-1" d="M65.75,208.39c-1.85,1.39-3.53,3.56-5.57,4-3.21.65-5.53-1.55-5.6-4.84s2-5.66,5.3-5.19c2.06.29,3.87,2.36,5.79,3.64Z"/><path class="cls-1" d="M275.75,205.59c-1.21-1.93-3.15-3.75-3.48-5.82a4.34,4.34,0,0,1,5-5.17c2.05.4,4.75,3.28,5,5.29.2,1.75-2.67,3.84-4.19,5.78Z"/><path class="cls-1" d="M398.15,538.43c-1.27-2-3.34-3.85-3.63-6-.44-3.31,2.12-5.21,5.32-5.13,3,.06,5.46,1.9,4.75,5-.52,2.25-2.69,4.11-4.13,6.15Z"/><path class="cls-1" d="M111.28,178.45c.09-5.43,2.21-6.4,5.6-6.4,3.6,0,4.84,2,4.77,5-.07,3.38-2.44,5.49-5.56,4.9C114,181.55,112.32,179.25,111.28,178.45Z"/><path class="cls-1" d="M52.29,224.66c-2.14,1.29-4.36,3.7-6.39,3.55-1.71-.13-4.23-3.05-4.57-5-.56-3.25,2.08-5.53,5.29-4.86,2.11.44,3.83,2.68,5.73,4.12Z"/><path class="cls-1" d="M330.8,252.35c-2,1.4-4.14,4-6.08,3.86s-4.52-2.92-4.85-4.88a4.24,4.24,0,0,1,5.13-5.05c2.09.4,3.88,2.38,5.8,3.66Z"/><path class="cls-1" d="M94.64,310c-2,1.44-4,4.06-6,4s-4.6-2.71-5.07-4.67c-.76-3.13,1.67-5.6,5-5.17,2.1.28,4,2.2,6,3.38Z"/><path class="cls-1" d="M362.88,112.24c1.34,1.89,3.5,3.65,3.81,5.7a4.43,4.43,0,0,1-5.09,5.25c-2-.33-4.79-3-4.92-4.82s2.41-4.07,3.79-6.12Z"/><path class="cls-1" d="M78.5,404.58c-1.41-1.9-4.16-4-3.88-5.66.35-2.11,3.12-3.81,4.84-5.68,1.76,1.66,4.78,3.21,4.94,5,.17,2-2.3,4.19-3.62,6.29Z"/><path class="cls-1" d="M38.58,499.53c-2,1.09-4,2.92-6.09,3.1a4.32,4.32,0,0,1-4.81-5.37c.56-2,3.61-4.53,5.62-4.59,1.78-.06,3.67,2.95,5.51,4.6Z"/><path class="cls-1" d="M228.24,109.52c-1.34-2-3.81-4.16-3.67-6.08s3.24-5.07,4.59-4.86c2.06.32,4.91,2.9,5.23,4.87.29,1.77-2.39,4-3.76,6Z"/><path class="cls-1" d="M39.43,509.44c3.52-2.29,5.72-4.83,7.81-4.74,1.73.07,4.32,3.07,4.73,5.13a4.39,4.39,0,0,1-5.08,5.2C44.64,514.66,42.77,512.07,39.43,509.44Z"/><path class="cls-1" d="M405.14,102.52c-1.3-2-3.4-3.77-3.72-5.86-.52-3.29,2-5.38,5.16-5.3s5.52,2.44,4.88,5.63c-.42,2.05-2.67,3.73-4.1,5.58Z"/><path class="cls-1" d="M531.5,375.83c-4-.17-6.22-2.45-5.42-5.4.56-2,3.48-4.54,5.52-4.7,1.5-.12,4.37,3,4.67,5C536.72,373.74,534.45,375.88,531.5,375.83Z"/><path class="cls-1" d="M305.76,50.78c-2,1.31-4.15,3.76-6.06,3.61s-5.13-3.29-4.89-4.55c.42-2.12,2.92-5,4.92-5.3,1.73-.3,4,2.43,6,3.83C305.75,49.17,305.75,50,305.76,50.78Z"/><path class="cls-1" d="M463.73,232.18c-2,1.49-3.81,3.77-6,4.28-3,.71-5-1.74-5.17-4.71-.24-3.41,2-5.63,5.12-5.38,2.07.17,4,2.23,6,3.45C463.67,230.61,463.7,231.39,463.73,232.18Z"/><path class="cls-1" d="M361.32,149.8c2-1.21,3.82-3.17,5.91-3.45a4.3,4.3,0,0,1,5,5.22c-.41,1.93-3.25,4.58-5.08,4.65s-3.93-2.57-5.9-4Z"/><path class="cls-1" d="M53.92,469.77c-1.5-2-4.38-4.16-4.14-5.91.27-1.95,3.22-4.62,5.28-4.89,1.53-.2,4.76,2.81,4.92,4.6s-2.37,4.08-3.73,6.13Z"/><path class="cls-1" d="M63.78,294.53c-1.91,1.38-3.65,3.53-5.75,3.94-3.21.64-6-1.71-5.35-4.81.4-2.09,3.17-4.69,5.3-5.14,1.57-.34,3.81,2.41,5.75,3.78Z"/><path class="cls-1" d="M470.62,310.51c-1.39-2.09-4-4.27-3.84-6.25.14-1.79,3.07-4.44,5.1-4.78a4.24,4.24,0,0,1,5,5.25c-.42,2.11-2.56,3.88-3.92,5.8Z"/><path class="cls-1" d="M143.78,360.4c-1.86,1.4-3.54,3.57-5.61,4-3.22.72-6-1.65-5.51-4.69.33-2.06,3.11-4.66,5.24-5.18,1.56-.38,3.85,2.24,5.81,3.52Z"/><path class="cls-1" d="M62.72,551.31c-1.93,1.38-3.77,3.77-5.79,3.92a4.72,4.72,0,0,1-5.21-5.67c.42-1.9,3.35-4.44,5.22-4.49s3.93,2.55,5.9,4Z"/><path class="cls-1" d="M10.56,385.89c1.4,1.95,4.17,4.16,3.85,5.78-.4,2.13-3.24,3.79-5,5.65-1.71-1.72-4.7-3.37-4.79-5.17-.1-2,2.4-4.19,3.77-6.3Z"/><path class="cls-1" d="M159.24,181.58c-2,1.53-4,4.16-6.05,4.25-1.73.07-4.61-2.54-5.15-4.48a4.31,4.31,0,0,1,4.58-5.55c2.26.19,4.35,2.41,6.51,3.72Z"/><path class="cls-1" d="M445.21,256.7c1.91-1.26,3.69-3.21,5.78-3.64a4.2,4.2,0,0,1,5.23,4.92c-.42,2.08-3.28,4.64-5.42,5-1.55.31-3.71-2.57-5.59-4Z"/><path class="cls-1" d="M153.41,543.14c2.11-1.25,4.34-3.66,6.28-3.44s4.43,3.07,4.66,5a4.37,4.37,0,0,1-5.41,4.82c-2.06-.43-3.75-2.62-5.61-4Z"/><path class="cls-1" d="M104.64,361.26c1.38,2.07,3.9,4.2,3.8,6.19-.1,1.76-2.92,4.38-4.91,4.79-3.25.66-5.47-2.11-5-5.19.3-2.07,2.54-3.87,3.91-5.79Z"/><path class="cls-1" d="M148,279.8c-.23,5.23-2.59,7.22-5.57,6.47-2-.49-4.49-3.14-4.74-5.08a4.34,4.34,0,0,1,5.42-4.83C145.16,276.8,146.87,279,148,279.8Z"/><path class="cls-1" d="M419.82,252c-2,1.48-4.21,4.35-5.9,4.07-2-.35-4.68-3.17-5.06-5.29-.25-1.38,2.93-4.61,4.8-4.8s4.09,2.33,6.15,3.66Z"/><path class="cls-1" d="M224.81,225.67c-1.43-1.85-4.26-4-4-5.49.43-2.18,2.88-5.11,4.92-5.53a4.31,4.31,0,0,1,5,5.19c-.38,2.08-2.43,3.86-3.73,5.78Z"/><path class="cls-1" d="M68.92,441.4c-2,1.43-4.1,4-6.1,4-1.83,0-3.58-2.94-5.37-4.58,1.8-1.83,3.37-4.68,5.47-5.15,1.63-.37,3.92,2.26,5.92,3.55Z"/><path class="cls-1" d="M458.92,112.45c-1,4.69-3.11,6.9-6.23,6.08-1.95-.5-4.63-3.33-4.58-5s2.91-4.8,4.68-4.9C454.75,108.49,456.87,111.05,458.92,112.45Z"/><path class="cls-1" d="M557.29,394.73c-2.15,1.44-4.29,3.91-6.47,3.95-1.54,0-4.08-3-4.5-5.07-.6-3,1.83-5.24,4.87-4.69,2.17.4,4,2.37,6.06,3.63C557.26,393.28,557.28,394,557.29,394.73Z"/></g></g></svg>