<svg xmlns="http://www.w3.org/2000/svg" viewBox="0 0 173.64 191.65"><defs><style>.cls-1{fill:#ea5c48;}</style></defs><g id="Layer_2" data-name="Layer 2"><g id="Layer_1-2" data-name="Layer 1"><path class="cls-1" d="M160.64,135.45c1.28,2.7,2.82,5.37,3.85,8.23,2.07,5.79,3.87,11.68,5.8,17.52.54,1.65.41,2.7-1.54,3.44a6.18,6.18,0,0,0,2,11.76c1.93,0,2.26,1,2.33,2.4.16,3.16.37,6.33.38,9.49,0,1.14.79,3-1.34,3.13-1.82.11-3.94,1-5.06-1.74a5.7,5.7,0,0,0-6.51-3.9c-2.47.3-3.93,1.81-5.13,3.91a4,4,0,0,1-2.76,1.79c-6,.16-12,.08-18,.09-1.23,0-2.2,0-2.34-1.79-.33-4.19-2.83-6.62-6.38-6.53s-6,2.77-6.16,7a6.87,6.87,0,0,1-.16,1c-1,.1-2,.27-3.08.28-10.16,0-20.33,0-30.49,0-1.75,0-2.86-.3-3.57-2.24A5.59,5.59,0,0,0,77,185.73a5.9,5.9,0,0,0-5.87,3.87,2.78,2.78,0,0,1-3,2c-15.49,0-31,0-46.49,0-.65,0-1.3-.13-2.26-.23.5-3,.4-5.88-2.26-7.69A7.63,7.63,0,0,0,13,182.34c-4.09.08-6,3.12-5.77,9.17-2,0-4.06.08-6.08-.06A1.73,1.73,0,0,1,0,190.23c.16-5.62.44-11.23.69-17,5.66,1.67,9.05.35,10.15-3.55,1.19-4.22-1-6.7-7.85-8.56,1.62-4.89,3.2-9.76,4.87-14.6a1.58,1.58,0,0,1,1.3-.76c3.3.52,6-.2,7.5-3.45,1.32-3,.5-5.33-2.59-8.33,4.79-10.93,17.65-22.16,26.07-19.71-1.1,4.89,0,7.94,3.33,9.25s6.33-.13,8.73-4.6c1.23.58,2.47,1.17,3.73,1.75l3.5,1.59a28.59,28.59,0,0,0-.84,4.29,6.08,6.08,0,0,0,5.35,6.2,6,6,0,0,0,6.82-4.86c.27-2,1-2.17,2.76-2.06,6.06.4,12.13.64,18.2.89,1.15.05,1.89.06,2.32,1.54a6.13,6.13,0,0,0,7.15,4.4c3.17-.64,4.93-3.05,5.07-6.49a2.68,2.68,0,0,1,1.52-2,73.74,73.74,0,0,0,18-8,16.33,16.33,0,0,1,17.37-.06c3.32,2,6.18,4.73,9.11,7.29a2.46,2.46,0,0,1,.17,2.39c-1.94,2.82-2.18,5.45-.44,7.83s4.43,3.1,7.56,2C159.74,135.63,160,135.6,160.64,135.45ZM133.3,166.23a6.53,6.53,0,0,0-6.4,6.38,6.45,6.45,0,0,0,6.3,6.18,6.36,6.36,0,0,0,6.38-6.35A6.47,6.47,0,0,0,133.3,166.23Zm-68.63-2.95a6.25,6.25,0,1,0,12.5-.06,6.25,6.25,0,0,0-12.5.06Zm50.09,19a6.25,6.25,0,1,0-12.49,0,6.25,6.25,0,1,0,12.49,0ZM20.68,178a6.24,6.24,0,1,0,6.47-6.19A6.35,6.35,0,0,0,20.68,178Zm16-48a6.43,6.43,0,0,0-6.43-6.25,6.25,6.25,0,0,0-6.1,6.28,6.07,6.07,0,0,0,6.12,6.21A6.31,6.31,0,0,0,36.7,130Zm40.06,6.15a6.6,6.6,0,0,0,6.4,6.37,6.24,6.24,0,0,0,6.17-6.22,6.38,6.38,0,0,0-6.3-6.41A6.65,6.65,0,0,0,76.76,136.17Zm39.09,9.74a6.19,6.19,0,1,0,0-12.37,6.15,6.15,0,0,0-6.09,6.22A6,6,0,0,0,115.85,145.91Zm22.58,0a6.2,6.2,0,1,0-.06-12.39,6,6,0,0,0-6.07,6.21A6.06,6.06,0,0,0,138.43,145.9Zm12.48,15.87a6.25,6.25,0,0,0-.31,12.49,6.27,6.27,0,0,0,6.54-6.36A6.18,6.18,0,0,0,150.91,161.77Zm-88,19.15a6,6,0,0,0-6.14-6.1,6,6,0,0,0-6.18,6.37,6.12,6.12,0,0,0,6.19,6.13A6,6,0,0,0,62.89,180.92Zm91.21-23.69a6.23,6.23,0,0,0,.16-12.46,6.23,6.23,0,1,0-.16,12.46ZM136,117.68a6.06,6.06,0,0,0-6.33,6.21,6.15,6.15,0,0,0,6.37,6.21,6.21,6.21,0,0,0,0-12.42Zm-.13,37.9a6,6,0,0,0-6.3-6.24,6.25,6.25,0,1,0,.26,12.5A6.1,6.1,0,0,0,135.91,155.58ZM23.19,164.84a6.29,6.29,0,0,0,6.5-6.17,6.46,6.46,0,0,0-6.11-6.33,6.37,6.37,0,0,0-6.46,6.22A6.2,6.2,0,0,0,23.19,164.84Zm63.5,3.87a6.24,6.24,0,1,0,6.1,6.19A6,6,0,0,0,86.69,168.71ZM48.92,142.45a6.1,6.1,0,0,0-6-6.29,6.18,6.18,0,0,0-6.32,6.27,6.17,6.17,0,1,0,12.34,0ZM58.54,147a6.18,6.18,0,1,0,12.35.26,6,6,0,0,0-6.13-6.4A6.31,6.31,0,0,0,58.54,147ZM45,155.6a6.16,6.16,0,1,0-.15,12.31,6.17,6.17,0,0,0,6.35-6A6.06,6.06,0,0,0,45,155.6ZM98.92,153a6.17,6.17,0,1,0-12.34-.19,6.17,6.17,0,1,0,12.34.19Zm9.63,15a6.16,6.16,0,1,0,0-12.31,6.16,6.16,0,1,0,0,12.31Z"/><path class="cls-1" d="M103.73,105.69a142.67,142.67,0,0,0,6.63-37c.26-6.31-.32-12.65-.49-19-.06-1.85-1.2-2.16-2.71-2.08-4,.22-8,.61-12,.58q-16.25-.13-32.48-.61c-2.44-.07-3.39.62-3.62,3.1a122.23,122.23,0,0,0,1,31.4c1.27,7.71,3.06,15.33,4.73,23.57A46.5,46.5,0,0,1,58,105.3C46.62,103.06,38.89,96,33.33,86.22a6.28,6.28,0,0,1-.46-3.87c1.55-8.34,2.65-16.83,5-24.94A315.41,315.41,0,0,1,49,26.15,43.41,43.41,0,0,1,65.81,5.82c14.41-9.25,30.92-7.34,43.45,4.78,7.44,7.21,11.78,16.22,15.26,25.78,4.42,12.15,8.29,24.44,10.55,37.2a37.74,37.74,0,0,0,.76,4.68c1.61,5.2-.22,9.35-3.45,13.32-6.41,7.88-14.11,13.39-24.59,14.1C106.59,105.76,105.38,105.69,103.73,105.69Z"/><path class="cls-1" d="M75.82,93.35C81.06,89,88.14,89,94.25,93.18,90.43,99.62,80.74,99.78,75.82,93.35Z"/></g></g></svg>